<svg width="911" height="307" viewBox="0 0 911 307" fill="none" xmlns="http://www.w3.org/2000/svg">
<path d="M194.319 9.2859C179.658 -4.21782 162.973 -1.35558 152.946 7.47101C142.59 16.5854 137.173 34.4225 149.737 52.0517C166.758 75.949 166.662 98.1035 163.573 112.479C159.996 129.18 150.465 144.611 138.085 153.757C129.266 160.273 117.494 164.175 110.884 155.588C93.0622 132.418 62.6523 122.345 36.924 131.075C13.8045 138.926 0 159.994 0 187.441C0 208.732 9.49908 226.009 27.4809 237.41C43.022 247.268 65.0131 252.601 89.8212 252.601C91.4377 252.601 93.0702 252.577 94.7027 252.537C97.4876 252.457 100.273 252.305 103.057 252.105V270.558L28.7773 297.245C26.1605 298.181 24.8081 301.059 25.7444 303.673C26.6807 306.288 29.5696 307.639 32.1785 306.704L107.651 279.584L184.012 306.704C184.572 306.903 185.14 306.999 185.7 306.999C187.765 306.999 189.71 305.712 190.438 303.657C191.366 301.043 189.998 298.165 187.381 297.237L113.117 270.862V251.13C132.091 248.747 150.585 243.582 166.558 236.075C199.833 220.444 221.952 187.177 228.85 142.388C236.773 90.9878 222.248 35.0061 194.319 9.2859Z" fill="#DFD1A7" fill-opacity="0.4"/>
<path d="M153.5 209.664C152.068 209.664 150.505 209.404 148.812 208.883C147.12 208.362 145.753 207.841 144.711 207.32L143.344 206.539C141.781 204.716 141 202.307 141 199.312C141 196.448 142.237 194.104 144.711 192.281C147.055 190.458 149.854 189.547 153.109 189.547C155.453 189.547 158.122 190.979 161.117 193.844C164.112 196.578 166.391 197.945 167.953 197.945C171.599 197.945 175.31 194.365 179.086 187.203C180.909 183.688 182.406 178.674 183.578 172.164C184.75 165.784 185.336 158.492 185.336 150.289V63.1797C185.336 59.1432 185.206 55.6927 184.945 52.8281C184.815 49.8333 184.49 47.4896 183.969 45.7969C183.708 45.0156 182.732 44.3646 181.039 43.8438C179.346 43.1927 177.523 42.6719 175.57 42.2812C173.617 41.8906 172.055 41.6953 170.883 41.6953C170.362 41.6953 170.102 40.849 170.102 39.1562C170.102 37.5938 170.362 36.5521 170.883 36.0312C172.055 36.0312 174.008 36.1615 176.742 36.4219C179.607 36.5521 182.667 36.7474 185.922 37.0078C189.177 37.138 191.977 37.2031 194.32 37.2031C198.487 37.2031 202.654 37.0729 206.82 36.8125C210.987 36.4219 214.372 36.1615 216.977 36.0312C217.237 37.0729 217.367 38.0495 217.367 38.9609C217.367 40.7839 217.107 41.6953 216.586 41.6953C215.805 41.6953 214.438 41.9557 212.484 42.4766C210.531 42.8672 208.708 43.388 207.016 44.0391C205.323 44.5599 204.346 45.1458 204.086 45.7969C202.914 50.224 202.328 56.2786 202.328 63.9609V148.727C202.328 156.93 201.091 164.677 198.617 171.969C196.273 179.391 192.888 185.901 188.461 191.5C184.164 197.099 179.021 201.526 173.031 204.781C167.042 208.036 160.531 209.664 153.5 209.664Z" fill="#433F35"/>
<path d="M249.398 147.945C237.159 135.185 231.039 119.625 231.039 101.266C231.039 92.151 232.667 83.6224 235.922 75.6797C239.177 67.6068 243.604 60.5755 249.203 54.5859C254.932 48.4661 261.573 43.7135 269.125 40.3281C276.677 36.8125 284.75 35.0547 293.344 35.0547C301.938 35.0547 310.01 36.8125 317.562 40.3281C325.115 43.7135 331.755 48.4661 337.484 54.5859C343.214 60.5755 347.706 67.6068 350.961 75.6797C354.216 83.6224 355.844 92.151 355.844 101.266C355.844 119.625 349.724 135.185 337.484 147.945C329.151 156.799 319.711 162.659 309.164 165.523C298.617 168.518 288.07 168.518 277.523 165.523C267.107 162.659 257.732 156.799 249.398 147.945ZM296.469 158.883C304.802 158.883 312.094 156.148 318.344 150.68C324.594 145.341 329.151 138.701 332.016 130.758C335.01 122.685 336.508 114.091 336.508 104.977C336.508 94.6901 334.815 84.8594 331.43 75.4844C328.044 66.2396 322.771 58.5573 315.609 52.4375C308.448 46.3177 300.049 43.2578 290.414 43.2578C282.211 43.2578 275.115 45.7969 269.125 50.875C263.135 55.8229 258.513 62.3984 255.258 70.6016C252.003 78.6745 250.375 87.4635 250.375 96.9688C250.375 107.255 252.068 117.086 255.453 126.461C258.839 135.706 264.112 143.453 271.273 149.703C278.435 155.823 286.833 158.883 296.469 158.883Z" fill="#433F35"/>
<path d="M372.836 165.914C372.315 165.393 372.055 164.417 372.055 162.984C372.055 161.161 372.315 160.25 372.836 160.25C374.008 160.25 375.57 160.12 377.523 159.859C379.477 159.469 381.299 158.948 382.992 158.297C384.685 157.646 385.661 156.995 385.922 156.344C386.443 154.521 386.768 152.177 386.898 149.312C387.159 146.448 387.289 142.997 387.289 138.961V63.1797C387.289 59.1432 387.159 55.6927 386.898 52.8281C386.768 49.8333 386.443 47.4896 385.922 45.7969C385.661 45.0156 384.685 44.3646 382.992 43.8438C381.299 43.1927 379.477 42.6719 377.523 42.2812C375.57 41.8906 374.008 41.6953 372.836 41.6953C372.315 41.6953 372.055 40.849 372.055 39.1562C372.055 37.5938 372.315 36.5521 372.836 36.0312C374.008 36.0312 375.961 36.1615 378.695 36.4219C381.56 36.5521 384.62 36.7474 387.875 37.0078C391.13 37.138 393.93 37.2031 396.273 37.2031C400.44 37.2031 404.607 37.0729 408.773 36.8125C412.94 36.4219 416.326 36.1615 418.93 36.0312C419.19 36.5521 419.255 37.6589 419.125 39.3516C419.125 40.9141 418.93 41.6953 418.539 41.6953C417.758 41.6953 416.391 41.9557 414.438 42.4766C412.484 42.8672 410.661 43.388 408.969 44.0391C407.276 44.5599 406.299 45.1458 406.039 45.7969C404.867 50.224 404.281 56.2786 404.281 63.9609V93.0625L404.672 93.6484C411.052 93.7786 416.716 93.9089 421.664 94.0391C426.612 94.0391 430.844 94.0391 434.359 94.0391C438.135 94.0391 442.432 94.0391 447.25 94.0391C452.068 93.9089 457.406 93.7786 463.266 93.6484C463.526 93.388 463.656 93.1276 463.656 92.8672V63.1797C463.656 59.1432 463.526 55.6927 463.266 52.8281C463.135 49.8333 462.81 47.4896 462.289 45.7969C462.029 45.0156 461.052 44.3646 459.359 43.8438C457.667 43.1927 455.844 42.6719 453.891 42.2812C451.938 41.8906 450.375 41.6953 449.203 41.6953C448.682 41.6953 448.422 40.849 448.422 39.1562C448.422 37.5938 448.682 36.5521 449.203 36.0312C450.245 36.0312 452.198 36.1615 455.062 36.4219C457.927 36.5521 460.987 36.7474 464.242 37.0078C467.628 37.138 470.492 37.2031 472.836 37.2031C477.003 37.2031 481.104 37.0729 485.141 36.8125C489.177 36.4219 492.497 36.1615 495.102 36.0312C495.362 37.0729 495.492 38.0495 495.492 38.9609C495.492 40.7839 495.232 41.6953 494.711 41.6953C493.93 41.6953 492.562 41.9557 490.609 42.4766C488.656 42.8672 486.833 43.388 485.141 44.0391C483.448 44.5599 482.471 45.1458 482.211 45.7969C481.69 47.8802 481.299 50.4193 481.039 53.4141C480.779 56.4089 480.648 59.9245 480.648 63.9609V138.18C480.648 142.216 480.779 145.732 481.039 148.727C481.299 151.721 481.69 154.26 482.211 156.344C482.471 156.865 483.448 157.451 485.141 158.102C486.833 158.753 488.656 159.273 490.609 159.664C492.562 160.055 493.93 160.25 494.711 160.25C495.232 160.25 495.492 161.227 495.492 163.18C495.492 163.961 495.362 164.872 495.102 165.914C488.591 165.654 483.448 165.458 479.672 165.328C476.026 165.068 473.747 164.938 472.836 164.938L449.203 165.914C448.682 165.393 448.422 164.286 448.422 162.594C448.422 161.031 448.682 160.25 449.203 160.25C450.375 160.25 451.938 160.12 453.891 159.859C455.844 159.469 457.667 158.948 459.359 158.297C461.052 157.646 462.029 156.995 462.289 156.344C462.81 154.521 463.135 152.177 463.266 149.312C463.526 146.448 463.656 142.997 463.656 138.961V104.586L463.266 103.805C457.146 103.674 451.677 103.609 446.859 103.609C442.042 103.479 437.875 103.414 434.359 103.414C414.307 103.414 404.281 103.74 404.281 104.391V138.18C404.281 145.732 404.867 151.786 406.039 156.344C406.299 156.865 407.276 157.451 408.969 158.102C410.661 158.753 412.484 159.273 414.438 159.664C416.391 160.055 417.758 160.25 418.539 160.25C418.93 160.25 419.125 161.031 419.125 162.594C419.255 164.156 419.19 165.263 418.93 165.914C412.419 165.654 407.276 165.458 403.5 165.328C399.724 165.068 397.315 164.938 396.273 164.938L372.836 165.914Z" fill="#433F35"/>
<path d="M617.953 166.305C615.87 166.305 613.721 164.807 611.508 161.812L535.727 54.3906V137.789C535.727 146.643 536.182 152.698 537.094 155.953C537.354 156.474 538.461 157.125 540.414 157.906C542.497 158.557 544.711 159.143 547.055 159.664C549.398 160.055 550.961 160.25 551.742 160.25C552.133 160.25 552.328 161.031 552.328 162.594C552.458 164.156 552.393 165.263 552.133 165.914C545.622 165.654 540.479 165.458 536.703 165.328C533.057 165.068 530.714 164.938 529.672 164.938L507.211 165.914C506.82 165.523 506.625 164.547 506.625 162.984C506.625 161.161 506.82 160.25 507.211 160.25C508.513 160.25 510.336 160.055 512.68 159.664C515.023 159.143 517.237 158.557 519.32 157.906C521.404 157.125 522.576 156.344 522.836 155.562C524.138 152.438 524.789 146.318 524.789 137.203V60.4453C524.789 53.8047 524.333 48.9219 523.422 45.7969C523.161 45.0156 521.99 44.3646 519.906 43.8438C517.953 43.1927 515.805 42.6719 513.461 42.2812C511.117 41.8906 509.294 41.6953 507.992 41.6953C507.471 41.6953 507.211 40.849 507.211 39.1562C507.211 37.5938 507.471 36.5521 507.992 36.0312C513.07 36.1615 517.237 36.2917 520.492 36.4219C523.878 36.4219 526.352 36.4219 527.914 36.4219C531.299 36.4219 534.294 36.4219 536.898 36.4219C539.503 36.2917 541.716 36.1615 543.539 36.0312C546.013 40.4583 552.719 50.6797 563.656 66.6953C574.724 82.5807 590.089 104.26 609.75 131.734C610.141 129.521 610.336 126.852 610.336 123.727V62.9844C610.336 54.7812 609.88 49.0521 608.969 45.7969C608.708 45.0156 607.536 44.2995 605.453 43.6484C603.37 42.9974 601.156 42.4766 598.812 42.0859C596.469 41.5651 594.711 41.3047 593.539 41.3047C593.018 41.3047 592.758 40.5234 592.758 38.9609C592.758 37.5286 593.018 36.5521 593.539 36.0312C594.711 36.0312 596.664 36.1615 599.398 36.4219C602.133 36.5521 605.062 36.7474 608.188 37.0078C611.443 37.138 614.242 37.2031 616.586 37.2031C619.971 37.2031 624.268 37.0078 629.477 36.6172C634.555 36.2266 637.549 36.0312 638.461 36.0312C638.721 37.0729 638.852 38.0495 638.852 38.9609C638.852 40.5234 638.591 41.3047 638.07 41.3047C637.289 41.3047 635.661 41.5651 633.188 42.0859C630.714 42.6068 628.37 43.1927 626.156 43.8438C624.073 44.4948 622.901 45.1458 622.641 45.7969C622.12 47.8802 621.729 50.4193 621.469 53.4141C621.208 56.4089 621.078 59.9245 621.078 63.9609V138.18C621.078 146.253 621.273 155.367 621.664 165.523C621.143 166.044 619.906 166.305 617.953 166.305Z" fill="#433F35"/>
<path d="M661.312 80.5625C659.49 80.5625 658.513 79.7161 658.383 78.0234C658.122 75.0286 657.667 71.7734 657.016 68.2578C656.365 64.7422 655.583 60.9661 654.672 56.9297C652.719 48.8568 651.742 43.6484 651.742 41.3047C651.742 39.8724 652.198 38.2448 653.109 36.4219C654.151 34.4688 655.583 32.776 657.406 31.3438C659.229 29.7812 661.378 29 663.852 29H664.828C667.172 29 668.799 29.7812 669.711 31.3438C670.622 33.0365 671.078 36.487 671.078 41.6953C671.078 45.4714 670.102 51.3958 668.148 59.4688C667.107 63.5052 666.26 67.0208 665.609 70.0156C665.089 73.0104 664.698 75.5495 664.438 77.6328C664.307 79.5859 663.266 80.5625 661.312 80.5625Z" fill="#433F35"/>
<path d="M727.914 167.281C724.789 167.281 721.469 167.021 717.953 166.5C714.438 166.109 711.508 165.654 709.164 165.133C704.346 164.221 700.831 163.505 698.617 162.984C696.534 162.333 694.581 161.878 692.758 161.617C691.065 153.544 689.828 146.969 689.047 141.891C688.266 136.682 687.875 132.906 687.875 130.562C687.875 129.781 688.917 129.391 691 129.391C693.344 129.391 694.971 129.977 695.883 131.148C700.44 149.898 711.247 159.273 728.305 159.273C734.815 159.273 740.349 157.32 744.906 153.414C749.464 149.508 751.742 143.974 751.742 136.812C751.742 134.469 751.221 131.604 750.18 128.219C749.268 124.833 747.12 121.904 743.734 119.43C741.13 117.477 738.982 116.044 737.289 115.133C735.596 114.091 733.904 113.18 732.211 112.398C730.518 111.487 728.37 110.25 725.766 108.688L717.953 104C713.917 101.526 709.88 98.7266 705.844 95.6016C701.807 92.3464 698.422 88.5703 695.688 84.2734C693.083 79.9766 691.781 75.0938 691.781 69.625C691.781 62.724 693.539 56.7344 697.055 51.6562C700.701 46.4479 705.388 42.4115 711.117 39.5469C716.977 36.6823 723.292 35.25 730.062 35.25C732.927 35.25 735.596 35.4453 738.07 35.8359C740.674 36.0964 742.823 36.4219 744.516 36.8125C748.422 37.724 751.156 38.4401 752.719 38.9609C754.411 39.4818 756.69 40.0677 759.555 40.7188C761.117 47.4896 761.898 56.7995 761.898 68.6484C761.898 69.5599 761.247 70.0156 759.945 70.0156C756.69 70.0156 754.997 69.3646 754.867 68.0625C754.216 64.1562 752.784 60.3151 750.57 56.5391C748.357 52.763 745.362 49.638 741.586 47.1641C737.81 44.5599 733.318 43.2578 728.109 43.2578C722.771 43.2578 718.604 44.2995 715.609 46.3828C712.615 48.3359 710.466 50.875 709.164 54C707.992 56.9948 707.406 60.1849 707.406 63.5703C707.406 66.8255 708.188 70.0807 709.75 73.3359C711.312 76.5911 713.591 79.3255 716.586 81.5391C720.622 84.5339 724.659 87.3333 728.695 89.9375C732.862 92.5417 737.159 95.2109 741.586 97.9453C745.753 100.549 749.919 103.479 754.086 106.734C758.253 109.859 761.703 113.44 764.438 117.477C767.302 121.513 768.734 126.201 768.734 131.539C768.734 138.44 766.846 144.625 763.07 150.094C759.294 155.432 754.281 159.664 748.031 162.789C741.911 165.784 735.206 167.281 727.914 167.281Z" fill="#433F35"/>
<rect x="833" y="61" width="78" height="78" fill="#DFD1A7"/>
<path d="M231.518 306.09C231.259 305.83 231.13 305.18 231.13 304.14C231.13 302.927 231.259 302.321 231.518 302.321C232.295 302.321 233.332 302.191 234.627 301.931C235.923 301.584 237.132 301.194 238.254 300.761C239.463 300.327 240.198 299.851 240.457 299.331C241.061 298.378 241.363 294.305 241.363 287.112V237.978C241.363 235.465 241.277 233.255 241.104 231.349C241.018 229.442 240.802 227.926 240.457 226.799C240.284 226.279 239.593 225.803 238.384 225.369C237.261 224.936 236.009 224.589 234.627 224.329C233.332 224.069 232.295 223.939 231.518 223.939C231.173 223.939 231 223.419 231 222.38C231 221.253 231.173 220.516 231.518 220.17C233.764 220.257 236.139 220.343 238.643 220.43C241.234 220.43 243.997 220.43 246.934 220.43L259.499 220.3C262.004 220.3 264.077 220.3 265.717 220.3C267.358 220.213 268.611 220.17 269.474 220.17C278.888 220.17 286.919 222.12 293.569 226.019C300.219 229.832 305.314 234.902 308.855 241.227C312.396 247.553 314.166 254.486 314.166 262.025C314.166 270.344 312.353 277.883 308.726 284.643C305.185 291.402 300.046 296.731 293.31 300.631C286.66 304.53 278.672 306.35 269.345 306.09L260.147 305.83C257.556 305.743 255.181 305.7 253.022 305.7C250.863 305.613 248.92 305.613 247.193 305.7L231.518 306.09ZM271.417 300.111C291.28 300.111 301.212 287.242 301.212 261.505C301.212 254.919 300.046 248.94 297.714 243.567C295.383 238.194 291.928 233.905 287.351 230.699C282.86 227.492 277.247 225.889 270.51 225.889H269.863C260.536 225.889 255.354 226.582 254.318 227.969C253.195 229.442 252.634 232.172 252.634 236.158V287.632C252.634 291.185 253.281 294.478 254.577 297.511C254.749 297.944 255.484 298.334 256.779 298.681C258.074 298.941 259.629 299.201 261.443 299.461C263.342 299.634 265.199 299.807 267.013 299.981C268.826 300.067 270.295 300.111 271.417 300.111Z" fill="#433F35" fill-opacity="0.42"/>
<path d="M412.106 306.22C409.947 306.22 407.097 306.177 403.556 306.09C400.101 306.09 395.999 306.047 391.249 305.96C386.499 305.873 382.181 305.787 378.295 305.7C374.409 305.7 370.954 305.7 367.932 305.7L352.257 306.09C351.998 305.83 351.868 305.137 351.868 304.01C351.868 302.884 351.998 302.321 352.257 302.321C353.034 302.321 354.071 302.191 355.366 301.931C356.661 301.584 357.871 301.194 358.993 300.761C360.202 300.327 360.936 299.851 361.195 299.331C361.8 298.378 362.102 294.305 362.102 287.112V237.978C362.102 235.465 362.016 233.255 361.843 231.349C361.757 229.442 361.541 227.926 361.195 226.799C361.023 226.279 360.332 225.803 359.123 225.369C358 224.936 356.748 224.589 355.366 224.329C354.071 224.069 353.034 223.939 352.257 223.939C351.912 223.939 351.739 223.419 351.739 222.38C351.739 221.253 351.912 220.516 352.257 220.17C354.502 220.257 356.877 220.343 359.382 220.43C361.973 220.43 364.736 220.43 367.673 220.43C369.659 220.43 372.336 220.387 375.704 220.3C379.072 220.213 383.131 220.083 387.881 219.91C392.717 219.737 396.906 219.607 400.447 219.52C404.074 219.433 407.097 219.39 409.515 219.39C409.688 220.603 409.947 222.076 410.292 223.809C410.638 225.456 411.069 227.276 411.588 229.269C412.019 231.349 412.365 233.038 412.624 234.338C412.969 235.638 413.185 236.548 413.272 237.068C412.84 237.501 412.062 237.718 410.94 237.718C409.817 237.718 409.213 237.415 409.126 236.808C407.831 232.042 406.017 229.009 403.685 227.709C401.354 226.323 398.158 225.629 394.099 225.629H385.42C377.906 225.629 374.107 226.193 374.02 227.319C373.847 228.359 373.675 229.789 373.502 231.609C373.416 233.428 373.372 235.638 373.372 238.238V259.035C373.372 259.555 375.229 259.815 378.943 259.815H385.809C388.745 259.815 390.731 259.815 391.767 259.815C392.804 259.729 393.538 259.599 393.97 259.425C394.488 259.252 395.438 258.992 396.82 258.645C397.683 258.472 398.331 257.476 398.763 255.656C399.281 253.749 399.713 252.19 400.058 250.976C400.145 250.37 400.792 250.066 402.001 250.066C403.038 250.066 403.772 250.283 404.204 250.716V275.284C403.858 275.63 403.167 275.804 402.131 275.804C401.008 275.804 400.317 275.457 400.058 274.764C399.713 273.55 399.411 272.511 399.151 271.644C398.892 270.777 398.676 270.041 398.504 269.434C398.072 268.221 397.726 267.528 397.467 267.355C397.295 267.181 396.949 266.921 396.431 266.575C395.222 265.881 390.645 265.535 382.7 265.535C376.481 265.535 373.372 265.925 373.372 266.705V286.852C373.372 292.485 373.761 296.428 374.538 298.681C374.797 299.548 377.734 299.981 383.347 299.981H389.565C397.511 299.981 402.951 299.244 405.888 297.771C407.183 297.078 408.608 295.561 410.163 293.222C411.803 290.795 413.099 287.935 414.049 284.643C414.222 284.123 414.826 283.863 415.862 283.863C417.503 283.863 418.583 284.123 419.101 284.643C418.842 285.336 418.41 286.419 417.806 287.892C417.287 289.279 416.769 290.709 416.251 292.182C415.733 293.655 415.301 294.911 414.956 295.951C414.437 297.511 413.876 299.288 413.272 301.281C412.667 303.274 412.278 304.92 412.106 306.22Z" fill="#433F35" fill-opacity="0.42"/>
<path d="M481.675 307C479.603 307 477.4 306.827 475.069 306.48C472.737 306.22 470.794 305.917 469.239 305.57C466.044 304.964 463.712 304.487 462.244 304.14C460.862 303.707 459.567 303.404 458.358 303.23C457.235 297.858 456.414 293.482 455.896 290.102C455.378 286.636 455.119 284.123 455.119 282.563C455.119 282.043 455.81 281.783 457.192 281.783C458.746 281.783 459.826 282.173 460.43 282.953C463.453 295.431 470.621 301.671 481.934 301.671C486.252 301.671 489.923 300.371 492.945 297.771C495.968 295.171 497.479 291.488 497.479 286.722C497.479 285.162 497.134 283.256 496.443 281.003C495.839 278.75 494.414 276.8 492.168 275.154C490.441 273.854 489.016 272.901 487.893 272.294C486.771 271.601 485.648 270.994 484.525 270.474C483.402 269.868 481.977 269.044 480.25 268.004L475.069 264.885C472.391 263.238 469.714 261.375 467.037 259.295C464.36 257.129 462.114 254.616 460.301 251.756C458.573 248.897 457.71 245.647 457.71 242.007C457.71 237.415 458.876 233.428 461.207 230.049C463.626 226.582 466.735 223.896 470.535 221.99C474.421 220.083 478.609 219.13 483.1 219.13C485 219.13 486.771 219.26 488.411 219.52C490.139 219.693 491.564 219.91 492.686 220.17C495.277 220.776 497.091 221.253 498.127 221.6C499.25 221.946 500.761 222.336 502.661 222.77C503.697 227.276 504.216 233.472 504.216 241.357C504.216 241.964 503.784 242.267 502.92 242.267C500.761 242.267 499.638 241.834 499.552 240.968C499.12 238.368 498.17 235.811 496.702 233.298C495.234 230.785 493.248 228.706 490.743 227.059C488.239 225.326 485.259 224.459 481.805 224.459C478.264 224.459 475.5 225.153 473.514 226.539C471.528 227.839 470.103 229.529 469.239 231.609C468.462 233.602 468.073 235.725 468.073 237.978C468.073 240.144 468.591 242.311 469.628 244.477C470.664 246.644 472.175 248.463 474.162 249.936C476.839 251.93 479.516 253.793 482.193 255.526C484.957 257.259 487.807 259.035 490.743 260.855C493.507 262.588 496.27 264.538 499.034 266.705C501.797 268.784 504.086 271.167 505.9 273.854C507.8 276.54 508.75 279.66 508.75 283.213C508.75 287.806 507.497 291.922 504.993 295.561C502.488 299.114 499.163 301.931 495.018 304.01C490.959 306.003 486.511 307 481.675 307Z" fill="#433F35" fill-opacity="0.42"/>
<path d="M546.711 306.09C546.365 305.743 546.193 305.094 546.193 304.14C546.193 302.927 546.365 302.321 546.711 302.321C547.488 302.321 548.524 302.234 549.82 302.061C551.115 301.801 552.324 301.454 553.447 301.021C554.57 300.587 555.217 300.154 555.39 299.721C555.736 298.508 555.951 296.948 556.038 295.041C556.211 293.135 556.297 290.839 556.297 288.152V237.718C556.297 235.032 556.211 232.735 556.038 230.829C555.951 228.836 555.736 227.276 555.39 226.149C555.217 225.629 554.57 225.196 553.447 224.849C552.324 224.416 551.115 224.069 549.82 223.809C548.524 223.549 547.488 223.419 546.711 223.419C546.365 223.419 546.193 222.856 546.193 221.73C546.193 220.69 546.365 219.997 546.711 219.65L562.256 220.3C562.947 220.3 564.544 220.257 567.049 220.17C569.553 219.997 572.965 219.823 577.283 219.65C577.456 220.343 577.542 220.993 577.542 221.6C577.542 222.813 577.369 223.419 577.024 223.419C576.506 223.419 575.599 223.593 574.303 223.939C573.008 224.199 571.799 224.546 570.676 224.979C569.553 225.326 568.906 225.716 568.733 226.149C567.956 229.096 567.567 233.125 567.567 238.238V287.632C567.567 292.658 567.956 296.688 568.733 299.721C568.906 300.067 569.553 300.457 570.676 300.891C571.799 301.324 573.008 301.671 574.303 301.931C575.599 302.191 576.506 302.321 577.024 302.321C577.369 302.321 577.542 302.97 577.542 304.27C577.542 304.79 577.456 305.397 577.283 306.09C572.965 305.917 569.553 305.787 567.049 305.7C564.544 305.527 562.947 305.44 562.256 305.44L546.711 306.09Z" fill="#433F35" fill-opacity="0.42"/>
<path d="M657.086 306.48C651.386 306.48 646.032 305.354 641.023 303.1C636.1 300.847 631.739 297.771 627.939 293.871C624.226 289.972 621.289 285.466 619.13 280.353C617.058 275.154 616.021 269.651 616.021 263.845C616.021 257.692 617.101 251.93 619.26 246.557C621.419 241.097 624.441 236.331 628.328 232.258C632.214 228.099 636.705 224.849 641.8 222.51C646.982 220.17 652.552 219 658.511 219C664.643 219 674.877 220.95 689.213 224.849L689.731 240.968C689.731 242.267 688.824 242.917 687.011 242.917C686.147 242.917 685.586 242.701 685.326 242.267C682.995 230.395 674.186 224.459 658.9 224.459C653.2 224.459 648.061 226.149 643.484 229.529C638.907 232.908 635.28 237.458 632.603 243.177C629.925 248.897 628.587 255.223 628.587 262.155C628.587 266.921 629.407 271.644 631.048 276.323C632.775 280.916 635.107 285.076 638.043 288.802C641.066 292.442 644.607 295.388 648.666 297.641C652.811 299.807 657.259 300.891 662.009 300.891C669.695 300.891 675.309 299.937 678.849 298.031C679.454 297.771 679.756 297.121 679.756 296.081L679.627 285.422V284.513C679.627 278.967 679.281 275.24 678.59 273.334C678.418 272.727 677.683 272.251 676.388 271.904C675.093 271.471 673.711 271.124 672.243 270.864C670.775 270.604 669.565 270.474 668.615 270.474C668.27 270.474 668.097 269.911 668.097 268.784C668.097 267.744 668.27 267.051 668.615 266.705L685.586 267.355L699.576 266.705C699.749 267.398 699.835 268.004 699.835 268.524C699.835 269.824 699.663 270.474 699.317 270.474C698.972 270.474 698.281 270.604 697.244 270.864C696.294 271.124 695.258 271.427 694.135 271.774C693.099 272.121 692.322 272.467 691.804 272.814C690.94 273.42 690.508 276.323 690.508 281.523C690.508 282.389 690.508 283.343 690.508 284.383C690.595 285.336 690.681 286.332 690.767 287.372L690.897 290.882C690.897 292.615 691.199 294.131 691.804 295.431C692.408 296.731 692.71 297.598 692.71 298.031C692.71 298.724 691.631 299.504 689.472 300.371C688.09 301.064 686.924 301.541 685.974 301.801C685.024 302.061 684.376 302.277 684.031 302.451C683.599 302.624 682.649 302.97 681.181 303.49C679.713 303.924 678.504 304.227 677.554 304.4C675.222 304.834 673.063 305.224 671.077 305.57C669.09 305.83 667.018 306.047 664.859 306.22C662.7 306.393 660.109 306.48 657.086 306.48Z" fill="#433F35" fill-opacity="0.42"/>
<path d="M807.231 306.35C805.849 306.35 804.424 305.354 802.956 303.36L752.694 231.869V287.372C752.694 293.265 752.996 297.294 753.601 299.461C753.773 299.807 754.507 300.241 755.803 300.761C757.185 301.194 758.653 301.584 760.207 301.931C761.762 302.191 762.798 302.321 763.316 302.321C763.575 302.321 763.705 302.84 763.705 303.88C763.791 304.92 763.748 305.657 763.575 306.09C759.257 305.917 755.846 305.787 753.342 305.7C750.923 305.527 749.369 305.44 748.678 305.44L733.781 306.09C733.521 305.83 733.392 305.18 733.392 304.14C733.392 302.927 733.521 302.321 733.781 302.321C734.644 302.321 735.853 302.191 737.408 301.931C738.962 301.584 740.43 301.194 741.812 300.761C743.194 300.241 743.971 299.721 744.144 299.201C745.008 297.121 745.439 293.048 745.439 286.982V235.898C745.439 231.479 745.137 228.229 744.533 226.149C744.36 225.629 743.583 225.196 742.201 224.849C740.905 224.416 739.48 224.069 737.926 223.809C736.371 223.549 735.162 223.419 734.299 223.419C733.953 223.419 733.781 222.856 733.781 221.73C733.781 220.69 733.953 219.997 734.299 219.65C737.667 219.737 740.43 219.823 742.589 219.91C744.835 219.91 746.476 219.91 747.512 219.91C749.757 219.91 751.744 219.91 753.471 219.91C755.198 219.823 756.666 219.737 757.875 219.65C759.516 222.596 763.964 229.399 771.218 240.058C778.559 250.63 788.75 265.058 801.79 283.343C802.05 281.87 802.179 280.093 802.179 278.013V237.588C802.179 232.129 801.877 228.316 801.272 226.149C801.1 225.629 800.322 225.153 798.94 224.719C797.559 224.286 796.091 223.939 794.536 223.679C792.982 223.333 791.816 223.16 791.038 223.16C790.693 223.16 790.52 222.64 790.52 221.6C790.52 220.646 790.693 219.997 791.038 219.65C791.816 219.65 793.111 219.737 794.925 219.91C796.738 219.997 798.681 220.127 800.754 220.3C802.913 220.387 804.77 220.43 806.324 220.43C808.57 220.43 811.42 220.3 814.874 220.04C818.242 219.78 820.229 219.65 820.833 219.65C821.006 220.343 821.092 220.993 821.092 221.6C821.092 222.64 820.92 223.16 820.574 223.16C820.056 223.16 818.976 223.333 817.336 223.679C815.695 224.026 814.14 224.416 812.672 224.849C811.29 225.283 810.513 225.716 810.34 226.149C809.995 227.536 809.736 229.226 809.563 231.219C809.39 233.212 809.304 235.551 809.304 238.238V287.632C809.304 293.005 809.433 299.071 809.693 305.83C809.347 306.177 808.527 306.35 807.231 306.35Z" fill="#433F35" fill-opacity="0.42"/>
<path d="M883.926 307C881.853 307 879.651 306.827 877.319 306.48C874.987 306.22 873.044 305.917 871.489 305.57C868.294 304.964 865.962 304.487 864.494 304.14C863.112 303.707 861.817 303.404 860.608 303.23C859.485 297.858 858.665 293.482 858.147 290.102C857.628 286.636 857.369 284.123 857.369 282.563C857.369 282.043 858.06 281.783 859.442 281.783C860.997 281.783 862.076 282.173 862.681 282.953C865.703 295.431 872.871 301.671 884.185 301.671C888.503 301.671 892.173 300.371 895.196 297.771C898.218 295.171 899.73 291.488 899.73 286.722C899.73 285.162 899.384 283.256 898.693 281.003C898.089 278.75 896.664 276.8 894.419 275.154C892.691 273.854 891.266 272.901 890.144 272.294C889.021 271.601 887.898 270.994 886.776 270.474C885.653 269.868 884.228 269.044 882.501 268.004L877.319 264.885C874.642 263.238 871.964 261.375 869.287 259.295C866.61 257.129 864.365 254.616 862.551 251.756C860.824 248.897 859.96 245.647 859.96 242.007C859.96 237.415 861.126 233.428 863.458 230.049C865.876 226.582 868.985 223.896 872.785 221.99C876.671 220.083 880.86 219.13 885.351 219.13C887.251 219.13 889.021 219.26 890.662 219.52C892.389 219.693 893.814 219.91 894.937 220.17C897.528 220.776 899.341 221.253 900.377 221.6C901.5 221.946 903.012 222.336 904.911 222.77C905.948 227.276 906.466 233.472 906.466 241.357C906.466 241.964 906.034 242.267 905.171 242.267C903.012 242.267 901.889 241.834 901.802 240.968C901.371 238.368 900.421 235.811 898.953 233.298C897.484 230.785 895.498 228.706 892.994 227.059C890.489 225.326 887.51 224.459 884.055 224.459C880.514 224.459 877.751 225.153 875.764 226.539C873.778 227.839 872.353 229.529 871.489 231.609C870.712 233.602 870.324 235.725 870.324 237.978C870.324 240.144 870.842 242.311 871.878 244.477C872.914 246.644 874.426 248.463 876.412 249.936C879.089 251.93 881.767 253.793 884.444 255.526C887.207 257.259 890.057 259.035 892.994 260.855C895.757 262.588 898.521 264.538 901.284 266.705C904.048 268.784 906.336 271.167 908.15 273.854C910.05 276.54 911 279.66 911 283.213C911 287.806 909.748 291.922 907.243 295.561C904.739 299.114 901.414 301.931 897.268 304.01C893.209 306.003 888.762 307 883.926 307Z" fill="#433F35" fill-opacity="0.42"/>
</svg>
